HIERARCHY
ROOT Hips
{
  OFFSET -125.086 92.215 135.881
  CHANNELS 6 Xposition Yposition Zposition Zrotation Xrotation Yrotation
  JOINT LeftUpLeg
  {
    OFFSET 8.64259 1.95398 -2.38835
    CHANNELS 3 Zrotation Xrotation Yrotation
    JOINT LeftLeg
    {
      OFFSET 43.7702 0 0
      CHANNELS 3 Zrotation Xrotation Yrotation
      JOINT LeftFoot
      {
        OFFSET 40.6238 0 0
        CHANNELS 3 Zrotation Xrotation Yrotation
        JOINT LeftToeBase
        {
          OFFSET 12.7242 0 0
          CHANNELS 3 Zrotation Xrotation Yrotation
          End Site
          {
            OFFSET 0 0 0
          }
        }
      }
    }
  }
  JOINT RightUpLeg
  {
    OFFSET -8.2249 1.95398 -2.59336
    CHANNELS 3 Zrotation Xrotation Yrotation
    JOINT RightLeg
    {
      OFFSET 43.5653 0 0
      CHANNELS 3 Zrotation Xrotation Yrotation
      JOINT RightFoot
      {
        OFFSET 40.6238 0 0
        CHANNELS 3 Zrotation Xrotation Yrotation
        JOINT RightToeBase
        {
          OFFSET 12.7242 0 0
          CHANNELS 3 Zrotation Xrotation Yrotation
          End Site
          {
            OFFSET 0 0 0
          }
        }
      }
    }
  }
  JOINT Spine
  {
    OFFSET 0.165834 0.87714 6.61349
    CHANNELS 3 Zrotation Xrotation Yrotation
    JOINT Spine1
    {
      OFFSET 7.38963 1.71661e-005 0
      CHANNELS 3 Zrotation Xrotation Yrotation
      JOINT Spine2
      {
        OFFSET 11.9445 1.14441e-005 0
        CHANNELS 3 Zrotation Xrotation Yrotation
        JOINT Spine3
        {
          OFFSET 14.7254 4.19617e-005 0
          CHANNELS 3 Zrotation Xrotation Yrotation
          JOINT Spine4
          {
            OFFSET 10.9679 0 0
            CHANNELS 3 Zrotation Xrotation Yrotation
            JOINT RightShoulder
            {
              OFFSET 2.46616 -1.6653 3.69651
              CHANNELS 3 Zrotation Xrotation Yrotation
              JOINT RightArm
              {
                OFFSET 13.0012 0 0
                CHANNELS 3 Zrotation Xrotation Yrotation
                JOINT RightForeArm
                {
                  OFFSET 28.7848 1.52588e-005 0
                  CHANNELS 3 Zrotation Xrotation Yrotation
                  JOINT RightHand
                  {
                    OFFSET 26.5688 1.52588e-005 0
                    CHANNELS 3 Zrotation Xrotation Yrotation
                    End Site
                    {
                      OFFSET 0 0 0
                    }
                  }
                }
              }
            }
            JOINT LeftShoulder
            {
              OFFSET 2.38034 -1.29275 -3.7523
              CHANNELS 3 Zrotation Xrotation Yrotation
              JOINT LeftArm
              {
                OFFSET 16.3182 6.10352e-005 0
                CHANNELS 3 Zrotation Xrotation Yrotation
                JOINT LeftForeArm
                {
                  OFFSET 27.0901 0 0
                  CHANNELS 3 Zrotation Xrotation Yrotation
                  JOINT LeftHand
                  {
                    OFFSET 24.5451 1.52588e-005 0
                    CHANNELS 3 Zrotation Xrotation Yrotation
                    End Site
                    {
                      OFFSET 0 0 0
                    }
                  }
                }
              }
            }
            JOINT Neck
            {
              OFFSET 5.0226 -0.0266342 0
              CHANNELS 3 Zrotation Xrotation Yrotation
              JOINT Head
              {
                OFFSET 6.69363 2.86102e-005 0
                CHANNELS 3 Zrotation Xrotation Yrotation
                End Site
                {
                  OFFSET 0 0 0
                }
              }
            }
          }
        }
      }
    }
  }
}
MOTION
Frames:	18
Frame Time:	0.0416667
-281.259 92.2621 285.961 88.6757 37.9763 88.6648 -169.761 -10.0395 89.7849 0.739637 12.487 -3.59513 63.9424 4.36531 11.4351 35.85 -0.509174 -1.77438 175.448 -0.986412 87.0992 -15.0751 -6.2496 -2.34562 69.0149 -0.601619 15.7962 29.5206 0.00694249 -1.33467 1.26015 5.4089 -89.2377 16.0463 2.8732 1.07017 4.37817 2.91755 0.94257 -18.1728 2.41875 1.88452 1.83988 2.41875 1.88452 143.21 -53.0415 -23.4351 19.9217 -8.10292 6.55094 -16.2093 -38.3244 -40.8286 -7.67731 -0.596989 4.12454 -55.6641 -39.3656 134.426 -39.8511 -12.7977 -12.5752 177.176 49.049 179.994 25.7824 8.43501 28.7346 23.8978 -21.1544 -4.78819 -60.7712 -18.9139 -0.915603 
-281.397 92.2889 286.11 88.6709 38.1277 88.3769 -169.952 -9.94168 89.4961 0.75078 12.3096 -3.62765 63.7732 4.31372 11.3298 35.9529 -0.520689 -1.75407 175.401 -0.640051 86.8999 -15.5324 -6.83782 -2.39365 68.9152 -0.698824 15.0153 29.7682 -0.0186396 -1.52085 1.21959 5.44211 -89.1615 15.9772 2.83163 1.2329 4.30889 2.88314 1.107 -18.2396 2.33021 2.02716 1.77301 2.33018 2.02715 143.691 -53.386 -23.0162 20.0204 -8.11068 5.92697 -15.96 -38.6525 -40.3762 -8.02058 -0.638167 4.3293 -55.9019 -38.8541 134.273 -40.37 -12.7785 -12.8449 177.218 48.5771 179.994 25.7102 8.73486 29.9145 24.9504 -21.5207 -5.32357 -61.5949 -19.251 -0.510008 
-281.776 92.4018 286.509 88.5098 38.6003 87.8107 -170.466 -9.47339 88.796 0.745604 12.5325 -3.65585 63.3697 4.31147 11.5571 35.8707 -0.505326 -1.89301 175.302 0.0961566 86.398 -16.0127 -6.68968 -2.48231 68.9263 -0.746592 14.9021 29.8215 0.022113 -2.07238 1.11609 5.46073 -89.0803 15.9375 2.66824 1.42449 4.26865 2.72834 1.30562 -18.2754 2.11682 2.16063 1.73729 2.11683 2.16063 143.819 -53.8451 -23.1249 19.5036 -8.41524 5.51237 -15.2911 -38.2742 -39.7437 -7.80336 -0.561235 3.41033 -56.0516 -38.853 134.03 -40.467 -12.6889 -12.9586 177.101 47.3229 179.995 26.4862 9.67348 32.3524 25.7695 -21.2684 -4.68259 -62.6449 -18.9037 -1.03392 
-282.341 92.5526 287.095 88.3045 39.3708 86.9535 -171.401 -8.80421 87.6923 0.781044 12.7291 -3.55105 62.4544 4.05976 11.4994 36.4709 -0.59349 -1.30801 174.933 1.73113 85.5603 -17.9369 -6.65876 -2.32169 68.8891 -0.807834 13.6899 30.4234 -0.201346 -0.610113 0.953439 5.5049 -88.9671 15.8458 2.40377 1.69766 4.17609 2.47614 1.59019 -18.3611 1.78256 2.34151 1.65152 1.78257 2.34152 144.039 -54.5619 -23.2659 18.7405 -8.75948 4.48665 -13.9152 -38.0182 -38.2145 -8.50486 -0.561935 2.64954 -56.0405 -39.1669 133.906 -40.398 -12.5311 -13.4783 177.009 45.9396 179.995 26.9928 10.6622 35.1341 27.6027 -20.7198 -3.37967 -64.7738 -18.176 -2.04217 
-283.039 92.8255 287.888 88.1949 40.4785 85.8404 -172.305 -7.94589 86.5103 0.726729 13.2756 -3.56902 61.5773 4.03036 11.7367 36.6637 -0.617088 -1.2181 174.922 3.30856 84.8187 -19.3833 -5.72308 -2.5709 68.572 -0.702268 13.875 31.9178 -0.43581 -0.773607 0.739877 5.57047 -88.8223 15.7116 2.05419 2.04836 4.04081 2.14236 1.95598 -18.4879 1.34383 2.5708 1.52472 1.34384 2.5708 144.528 -55.5884 -23.2454 17.6691 -9.50378 3.49868 -12.9576 -37.6666 -37.6218 -8.71366 -0.594306 2.90796 -56.3596 -39.2598 133.347 -40.4154 -12.1612 -13.9151 176.71 45.6371 179.995 27.3693 11.4493 37.2914 29.4396 -20.4133 -2.60221 -66.4403 -17.8761 -2.37775 
-283.745 93.0853 288.765 88.0221 41.927 84.6137 -173.655 -6.85181 84.9381 0.525598 14.507 -3.34206 60.309 4.13718 13.4383 38.4959 -0.782425 -1.55091 174.835 5.65446 84.0718 -22.4271 -5.99639 -2.6474 68.4734 -1.25112 11.4128 33.126 -0.627094 -0.89608 0.475559 5.64428 -88.6646 15.5623 1.6099 2.43857 3.89022 1.71564 2.36539 -18.6292 0.802929 2.80939 1.38344 0.802909 2.80938 144.982 -56.6218 -23.2734 16.678 -10.0996 2.47477 -12.5246 -37.7144 -37.8338 -8.36464 -0.772728 5.86726 -56.9426 -39.2235 132.414 -40.523 -11.7702 -14.2802 176.627 47.3531 179.995 28.2333 11.9152 37.6825 31.4784 -19.988 -1.98995 -68.0748 -17.5979 -2.37345 
-284.355 93.1846 289.636 88.127 43.7946 83.1438 -175.231 -5.21055 83.3231 -1.31683 14.7149 -2.77943 60.2244 4.66343 13.4897 39.7209 -0.911141 -1.01753 174.777 7.53739 83.0688 -25.1491 -3.62187 -2.89124 69.5205 -0.998482 13.3196 33.8681 -0.635134 -3.02431 0.161675 5.7587 -88.5061 15.3345 1.06646 2.84415 3.66094 1.19055 2.79451 -18.8495 0.16281 3.03301 1.16316 0.162802 3.033 145.889 -58.0738 -22.9784 15.2178 -10.3789 1.13359 -10.6372 -36.8707 -36.2958 -8.60797 -0.806707 6.03774 -57.6773 -39.5381 131.081 -40.3419 -11.1744 -14.8718 177.013 50.762 179.994 28.0402 10.8233 34.3306 33.858 -19.7187 -1.92405 -68.9658 -18.0451 -1.05024 
-284.666 93.2157 290.264 88.0677 46.0423 81.8511 -176.644 -3.69811 81.9382 -2.90483 15.4174 -2.20398 60.1356 4.65116 12.8931 41.2712 -1.06443 -0.151221 173.802 8.77524 81.7319 -26.5628 -4.41511 -2.26927 69.0715 -1.36916 10.7207 36.0661 -1.06711 -1.90319 -0.196806 5.84682 -88.3908 15.1635 0.413216 3.17557 3.48875 0.552531 3.15433 -19.0158 -0.559784 3.15307 0.996862 -0.559758 3.15306 146.792 -59.5294 -22.7016 13.4156 -10.3774 -0.154955 -8.96535 -35.8088 -34.7197 -8.9791 -0.827393 5.81554 -58.7409 -39.9592 129.172 -40.9823 -10.6631 -16.1608 178.574 49.483 179.994 28.8892 8.21036 27.0526 35.5575 -18.6979 -1.67793 -69.8601 -17.5722 -0.236724 
-284.655 93.0706 290.67 88.3201 48.6269 80.3309 -178.391 -2.4373 80.4559 -4.69353 15.5851 -1.31476 60.2152 4.92314 12.204 41.8148 -1.11168 0.289194 172.855 9.48352 80.2266 -27.7743 -2.4073 -1.81132 70.0147 -1.062 12.5029 35.1583 -0.920952 -1.78394 -0.589799 5.97207 -88.313 14.9225 -0.329351 3.44067 3.24704 -0.177653 3.4518 -19.256 -1.34767 3.18312 0.756636 -1.34766 3.18312 147.572 -60.8822 -22.5221 11.49 -9.71078 -1.84684 -6.74285 -34.9165 -32.1622 -8.71511 -0.726459 4.7628 -60.2701 -40.179 126.583 -42.8774 -9.86553 -18.0307 2.14238 89.1999 0.26092 4.27903 -0.600789 -13.1336 36.9986 -17.2536 -1.86327 -70.3843 -16.8299 1.08446 
-284.352 92.7251 290.615 89.7931 51.0057 77.8505 178.582 -1.46196 78.2527 -7.42367 14.0839 0.267769 59.6586 6.08268 13.0185 43.1081 -1.21123 -0.356237 171.121 9.79073 78.3423 -30.0802 -2.91419 -0.734275 71.0758 -1.48513 11.0169 35.6321 -1.04709 -0.624391 -0.93037 6.19231 -88.2738 14.493 -0.991484 3.60689 2.81733 -0.831915 3.64696 -19.6887 -2.0292 3.14293 0.323985 -2.02919 3.14293 148.296 -62.4258 -22.5237 8.9655 -9.46599 -3.35471 -4.57655 -34.5085 -30.1357 -9.67804 -0.978625 6.85971 -62.0965 -40.4469 123.481 -43.673 -7.31717 -19.3379 4.33806 84.7636 -3.26836 1.6884 -0.456462 -14.494 37.3558 -15.1807 -2.14132 -69.7205 -15.5792 2.6493 
-283.933 91.9379 290.665 90.1288 53.1073 77.5935 175.05 2.17928 77.7875 -12.2875 11.2628 1.39034 55.4424 6.79314 11.986 50.3132 -1.34706 6.04523 170.612 11.0959 78.178 -33.9244 -0.513532 -0.00206922 73.7814 -1.18996 12.7734 33.4688 -0.709731 -0.31402 -1.15857 6.38617 -88.4235 14.1145 -1.5239 3.37084 2.43992 -1.37415 3.43454 -20.0771 -2.46617 2.75769 -0.0644115 -2.46617 2.75769 148.725 -63.8336 -22.7999 6.75315 -8.84348 -5.34328 -2.07437 -34.2536 -26.6372 -9.63004 -0.798702 4.66723 -63.1529 -42.3061 121.17 -40.617 -3.42702 -19.9607 14.9947 77.0743 -18.4168 0.45619 -0.318181 -13.597 36.5153 -12.4016 -2.5686 -67.7394 -13.5884 4.32148 
-283.026 91.0036 290.312 89.2044 54.5513 78.9216 174.208 15.0059 77.0625 -35.2994 7.40567 2.37024 54.4136 5.76678 8.05928 53.8095 -1.4131 6.99769 170.581 11.8408 78.8788 -36.3451 1.36098 0.594217 75.9429 -0.814805 13.5123 33.6981 -0.849155 1.624 -1.21066 6.53122 -88.6461 13.8279 -1.74047 2.94553 2.15466 -1.60919 3.01917 -20.3721 -2.54502 2.28668 -0.359488 -2.54504 2.28666 146.345 -64.9092 -26.2134 6.03397 -7.64701 -6.55158 0.549454 -34.49 -22.4581 -9.90693 -0.89037 5.50659 -63.088 -45.2039 120.437 -36.2072 -0.800708 -19.8472 21.7413 70.2332 -29.7682 0.717463 -0.340806 -13.7218 34.1105 -8.83468 -3.14946 -64.5377 -10.2715 5.24415 
-281.64 90.6173 289.129 88.3268 54.7213 80.1116 176.34 24.7939 77.065 -47.0117 7.21938 1.6636 54.8212 5.01308 6.88945 54.5405 -1.58362 5.52853 170.43 10.5637 79.3768 -35.7686 1.8716 0.950268 77.3614 -0.6441 13.9799 33.3328 -0.790741 1.395 -1.06259 6.64517 -88.8932 13.5962 -1.57017 2.42124 1.92384 -1.46213 2.48794 -20.6074 -2.22516 1.8376 -0.594732 -2.22517 1.83759 141.121 -65.3035 -32.6801 6.20366 -5.83586 -7.72806 2.73796 -37.5073 -17.9354 -10.0241 -0.935328 5.91289 -61.867 -49.0053 121.251 -31.7968 -0.856692 -19.1272 39.0544 74.2649 -48.3275 10.2052 -1.15338 -13.9922 30.786 -4.756 -2.80513 -60.5104 -6.59054 5.81152 
-279.834 90.6296 287.62 86.9594 54.0045 81.7096 177.162 26.8355 77.1657 -34.5185 6.87819 0.209874 53.6718 3.78206 5.90261 52.2149 -1.51575 5.29664 170.918 8.99968 80.4222 -34.1815 2.82792 0.561294 77.0437 -0.76651 14.6527 36.1714 -1.12698 -0.843381 -0.853992 6.78972 -89.099 13.3025 -1.25951 1.96209 1.6306 -1.17197 2.01559 -20.9018 -1.79091 1.49295 -0.889162 -1.7909 1.49295 134.742 -65.5138 -40.5691 9.07832 -1.52207 -11.4354 6.93872 -38.9002 -7.9192 -10.6326 -0.734869 2.98584 -61.3008 -52.047 121.25 -29.4999 -4.03975 -18.8772 127.221 78.7767 -132.864 21.0102 -2.49168 -15.9217 27.6398 -1.47534 -3.598 -55.3814 -3.8029 7.8153 
-277.524 90.5816 285.505 86.9128 52.1852 83.3612 175.426 24.5019 79.4862 -12.4122 7.80611 0.655086 51.2094 1.10459 3.57283 49.1937 -1.30951 7.1245 171.149 5.84082 82.1909 -31.9306 1.79317 0.523444 75.5631 -1.84233 12.9998 40.2081 -1.77741 -0.0626381 -0.538844 6.95697 -89.3945 12.9631 -0.779147 1.3061 1.29173 -0.720932 1.33912 -21.2418 -1.13565 1.0116 -1.22918 -1.13566 1.01158 128.517 -65.4243 -48.2849 9.89624 -1.90579 -12.1878 6.58662 -37.9593 -8.80827 -9.90205 -0.79361 4.30348 -61.1188 -55.0397 120.716 -28.9661 -10.1021 -19.1102 2.42889 70.0088 -4.35494 1.05985 -0.380461 -13.7544 21.6316 0.920675 -3.51448 -45.7761 -1.38861 9.02746 
-274.344 89.8324 282.182 87.9791 49.0731 85.8756 175.905 25.5051 82.7099 -5.94528 7.13568 2.29003 54.2264 -0.629368 -1.28629 41.9878 -1.12148 8.78724 171.888 1.49475 84.7334 -30.9424 2.72493 0.386337 74.4269 -1.00921 17.1056 44.9767 -2.50997 0.416666 -0.154535 7.15057 -89.8235 12.5736 -0.222818 0.378192 0.902618 -0.20596 0.387636 -21.6324 -0.326182 0.293746 -1.61976 -0.32619 0.293745 124.061 -65.273 -53.8639 10.8704 -0.621435 -14.7831 6.27914 -38.6221 -8.26707 -9.86067 -0.766242 4.02893 -60.7493 -58.111 120.444 -28.3323 -16.6297 -18.9591 3.38701 72.7117 0.309605 -0.438247 -0.226329 -12.6231 11.571 2.51085 -1.90573 -30.7547 0.836606 8.74943 
-270.406 89.3971 277.716 89.1079 46.2514 88.5812 178.468 24.371 85.7324 -7.70334 8.9486 1.72807 52.3259 -0.92031 1.83405 41.0853 -1.13001 10.6323 172.73 -2.7082 86.7638 -30.6352 -0.389796 0.0120273 68.7163 -0.00740048 18.7587 53.2236 -3.68015 1.04065 0.106567 7.40648 -90.1986 12.061 0.118091 -0.409174 0.389954 0.0999764 -0.413978 -22.1448 0.235594 -0.354767 -2.13218 0.235609 -0.354769 117.914 -63.9141 -61.4241 13.6668 -0.182837 -16.6423 4.73318 -37.1671 -9.36724 -10.0295 -0.627704 2.19268 -61.4231 -60.2185 119.026 -27.7922 -21.2599 -16.2647 7.27426 75.2164 0.0430825 -2.0656 -0.110438 -11.7961 3.27863 2.73178 2.43731 -16.7616 1.65352 5.58997 
-265.517 89.5949 272.066 90.7187 44.8557 87.533 179.424 22.51 85.3289 -13.6092 11.2872 1.48048 48.2718 -2.78878 5.31921 40.4481 -1.03588 5.95531 171.804 -5.45604 84.8679 -32.073 -4.7404 -1.01936 55.5019 2.56519 21.5418 65.5107 -3.45187 10.7257 0.0725813 7.70515 -90.1604 11.4634 0.0694958 -0.326855 -0.207555 0.055011 -0.329597 -22.7424 0.164499 -0.290862 -2.72973 0.164494 -0.290864 110.568 -60.0572 -70.5794 18.5022 -0.902914 -15.5085 0.886881 -35.1464 -14.3151 -9.85794 -0.651678 2.6215 -61.4526 -61.2708 118.743 -29.4725 -24.0709 -16.8997 10.6548 77.6314 0.0748501 -5.25864 0.110136 -12.2324 2.34336 3.25093 10.0981 -13.0379 1.72474 -1.47542 
